<?xml version="1.0" encoding="UTF-8" standalone="no"?><!DOCTYPE svg PUBLIC "-//W3C//DTD SVG 1.1//EN" "http://www.w3.org/Graphics/SVG/1.1/DTD/svg11.dtd"><svg width="100%" height="100%" viewBox="0 0 1171 238" version="1.1" xmlns="http://www.w3.org/2000/svg" xmlns:xlink="http://www.w3.org/1999/xlink" xml:space="preserve" xmlns:serif="http://www.serif.com/" style="fill-rule:evenodd;clip-rule:evenodd;stroke-linejoin:round;stroke-miterlimit:2;"><g id="Logo"><g transform="matrix(17.8425,0,0,17.8425,-3070.25,-724.254)"><text x="188.396px" y="50.847px" style="font-family:'Carlito-Bold', 'Carlito', sans-serif;font-weight:700;font-size:11.209px;fill:#2f2f2f;">s</text><text x="193.092px" y="50.847px" style="font-family:'Carlito-Bold', 'Carlito', sans-serif;font-weight:700;font-size:11.209px;fill:#2f2f2f;">i</text><text x="196.069px" y="50.847px" style="font-family:'Carlito-Bold', 'Carlito', sans-serif;font-weight:700;font-size:11.209px;fill:#2f2f2f;">k<tspan x="201.562px " y="50.847px ">k</tspan></text><text x="206.917px" y="50.847px" style="font-family:'Carlito-Bold', 'Carlito', sans-serif;font-weight:700;font-size:11.209px;fill:#2f2f2f;">a</text></g><text x="716.399px" y="182.99px" style="font-family:'Carlito-Bold', 'Carlito', sans-serif;font-weight:700;font-size:200px;fill:#48ac48;">:</text><text x="773.624px" y="182.99px" style="font-family:'Carlito-Bold', 'Carlito', sans-serif;font-weight:700;font-size:200px;fill:#2f2f2f;">būy<tspan x="1079.97px " y="182.99px ">a</tspan></text><path d="M118.102,3.041c64.669,0 117.172,52.504 117.172,117.173c0,64.669 -52.503,117.172 -117.172,117.172c-64.669,0 -117.172,-52.503 -117.172,-117.172c-0,-64.669 52.503,-117.173 117.172,-117.173Zm0,55.411c34.087,0 61.762,27.675 61.762,61.762c-0,34.087 -27.675,61.762 -61.762,61.762c-34.087,-0 -61.762,-27.675 -61.762,-61.762c0,-34.087 27.675,-61.762 61.762,-61.762Z" style="fill:#48ac48;"/></g></svg>