<?xml version="1.0" encoding="UTF-8" standalone="no"?>
<svg
   xmlns:dc="http://purl.org/dc/elements/1.1/"
   xmlns:cc="http://creativecommons.org/ns#"
   xmlns:rdf="http://www.w3.org/1999/02/22-rdf-syntax-ns#"
   xmlns:svg="http://www.w3.org/2000/svg"
   xmlns="http://www.w3.org/2000/svg"
   xmlns:sodipodi="http://sodipodi.sourceforge.net/DTD/sodipodi-0.dtd"
   xmlns:inkscape="http://www.inkscape.org/namespaces/inkscape"
   width="112.9191mm"
   height="24.379463mm"
   viewBox="0 0 112.9191 24.379463"
   version="1.1"
   id="svg1225"
   inkscape:version="1.0.2-2 (e86c870879, 2021-01-15)"
   sodipodi:docname="sikka-logo-white.svg">
  <defs
     id="defs1219" />
  <sodipodi:namedview
     id="base"
     pagecolor="#000000"
     bordercolor="#666666"
     borderopacity="1.0"
     inkscape:pageopacity="0"
     inkscape:pageshadow="2"
     inkscape:zoom="0.7"
     inkscape:cx="507.98903"
     inkscape:cy="323.15758"
     inkscape:document-units="mm"
     inkscape:current-layer="layer1"
     inkscape:document-rotation="0"
     showgrid="false"
     inkscape:window-width="2560"
     inkscape:window-height="1361"
     inkscape:window-x="2391"
     inkscape:window-y="-9"
     inkscape:window-maximized="1"
     inkscape:snap-bbox="true"
     inkscape:bbox-paths="true"
     inkscape:bbox-nodes="true"
     inkscape:snap-bbox-edge-midpoints="true"
     inkscape:snap-bbox-midpoints="true"
     inkscape:object-paths="true"
     inkscape:snap-intersection-paths="true"
     inkscape:snap-smooth-nodes="true"
     inkscape:snap-midpoints="true"
     inkscape:snap-object-midpoints="true"
     inkscape:snap-center="true"
     inkscape:snap-text-baseline="true" />
  <metadata
     id="metadata1222">
    <rdf:RDF>
      <cc:Work
         rdf:about="">
        <dc:format>image/svg+xml</dc:format>
        <dc:type
           rdf:resource="http://purl.org/dc/dcmitype/StillImage" />
        <dc:title />
      </cc:Work>
    </rdf:RDF>
  </metadata>
  <g
     inkscape:label="Ebene 1"
     inkscape:groupmode="layer"
     id="layer1"
     transform="translate(-0.10976347,-0.37249538)">
    <g
       id="g1191"
       transform="translate(-44.491429,-65.678839)">
      <g
         aria-label="sikka"
         id="text863"
         style="font-style:normal;font-variant:normal;font-weight:bold;font-stretch:normal;font-size:14.2998px;line-height:1.25;font-family:sans-serif;-inkscape-font-specification:'sans-serif, Bold';font-variant-ligatures:normal;font-variant-caps:normal;font-variant-numeric:normal;font-variant-east-asian:normal;fill:#ffffff;fill-opacity:1;stroke:none;stroke-width:0.357494">
        <path
           d="m 81.413826,75.299529 v 1.899192 q -0.802967,-0.335151 -1.550076,-0.502727 -0.747109,-0.167576 -1.41043,-0.167576 -0.712197,0 -1.061313,0.181541 -0.342134,0.174558 -0.342134,0.544621 0,0.30024 0.258346,0.460833 0.265329,0.160594 0.942614,0.237399 l 0.439887,0.06284 q 1.920139,0.244382 2.583459,0.802968 0.663321,0.558586 0.663321,1.752563 0,1.249836 -0.921667,1.878245 -0.921666,0.628409 -2.751035,0.628409 -0.775038,0 -1.605935,-0.125681 -0.823914,-0.1187 -1.696705,-0.363081 v -1.899193 q 0.747109,0.363081 1.529129,0.544622 0.789003,0.18154 1.598953,0.18154 0.733144,0 1.103207,-0.202487 0.370063,-0.202488 0.370063,-0.60048 0,-0.335152 -0.258346,-0.495745 -0.251364,-0.167576 -1.012437,-0.258346 l -0.439886,-0.05586 q -1.668776,-0.209469 -2.339079,-0.775038 -0.670303,-0.565568 -0.670303,-1.717651 0,-1.242854 0.851843,-1.843334 0.851844,-0.60048 2.61139,-0.60048 0.69125,0 1.452323,0.104735 0.761073,0.104735 1.654811,0.328169 z"
           style="font-style:normal;font-variant:normal;font-weight:bold;font-stretch:normal;font-size:14.2998px;font-family:sans-serif;-inkscape-font-specification:'sans-serif, Bold';font-variant-ligatures:normal;font-variant-caps:normal;font-variant-numeric:normal;font-variant-east-asian:normal;fill:#ffffff;fill-opacity:1;stroke-width:0.357494"
           id="path1103" />
        <path
           d="m 83.815746,75.055148 h 2.499672 v 7.820203 h -2.499672 z"
           style="font-style:normal;font-variant:normal;font-weight:bold;font-stretch:normal;font-size:14.2998px;font-family:sans-serif;-inkscape-font-specification:'sans-serif, Bold';font-variant-ligatures:normal;font-variant-caps:normal;font-variant-numeric:normal;font-variant-east-asian:normal;fill:#ffffff;fill-opacity:1;stroke-width:0.357494"
           id="path1105"
           sodipodi:nodetypes="ccccc" />
        <path
           d="m 88.717338,72.010855 h 2.499672 v 5.914028 l 2.876718,-2.869735 h 2.904647 l -3.819332,3.588914 4.119572,4.231289 H 94.268286 L 91.21701,79.614606 v 3.260745 h -2.499672 z"
           style="font-style:normal;font-variant:normal;font-weight:bold;font-stretch:normal;font-size:14.2998px;font-family:sans-serif;-inkscape-font-specification:'sans-serif, Bold';font-variant-ligatures:normal;font-variant-caps:normal;font-variant-numeric:normal;font-variant-east-asian:normal;fill:#ffffff;fill-opacity:1;stroke-width:0.357494"
           id="path1107" />
        <path
           d="m 98.227264,72.010855 h 2.499676 v 5.914028 l 2.87671,-2.869735 h 2.90465 l -3.81933,3.588914 4.11957,4.231289 h -3.03033 l -3.05127,-3.260745 v 3.260745 h -2.499676 z"
           style="font-style:normal;font-variant:normal;font-weight:bold;font-stretch:normal;font-size:14.2998px;font-family:sans-serif;-inkscape-font-specification:'sans-serif, Bold';font-variant-ligatures:normal;font-variant-caps:normal;font-variant-numeric:normal;font-variant-east-asian:normal;fill:#ffffff;fill-opacity:1;stroke-width:0.357494"
           id="path1109" />
        <path
           d="m 111.24231,79.35626 q -0.78202,0 -1.18001,0.265328 -0.39101,0.265328 -0.39101,0.78202 0,0.474798 0.31421,0.747109 0.32118,0.265328 0.88675,0.265328 0.70522,0 1.187,-0.502727 0.48178,-0.50971 0.48178,-1.270783 V 79.35626 Z m 3.81934,-0.942614 v 4.461705 h -2.52062 v -1.159066 q -0.50273,0.712197 -1.13114,1.040366 -0.62841,0.321187 -1.52913,0.321187 -1.21492,0 -1.976,-0.705214 -0.75409,-0.712197 -0.75409,-1.843334 0,-1.375518 0.94262,-2.017892 0.94959,-0.642373 2.97447,-0.642373 h 1.47327 v -0.195506 q 0,-0.593497 -0.46782,-0.865808 -0.46781,-0.279293 -1.4593,-0.279293 -0.80297,0 -1.49422,0.160594 -0.69125,0.160593 -1.28475,0.48178 v -1.906174 q 0.80297,-0.195505 1.61292,-0.293258 0.80995,-0.104735 1.6199,-0.104735 2.11564,0 3.05127,0.837879 0.94262,0.830897 0.94262,2.709142 z"
           style="font-style:normal;font-variant:normal;font-weight:bold;font-stretch:normal;font-size:14.2998px;font-family:sans-serif;-inkscape-font-specification:'sans-serif, Bold';font-variant-ligatures:normal;font-variant-caps:normal;font-variant-numeric:normal;font-variant-east-asian:normal;fill:#ffffff;fill-opacity:1;stroke-width:0.357494"
           id="path1111" />
      </g>
      <text
         xml:space="preserve"
         style="font-style:normal;font-variant:normal;font-weight:bold;font-stretch:normal;font-size:14.2998px;line-height:1.25;font-family:sans-serif;-inkscape-font-specification:'sans-serif, Bold';font-variant-ligatures:normal;font-variant-caps:normal;font-variant-numeric:normal;font-variant-east-asian:normal;fill:#ffffff;fill-opacity:1;stroke:none;stroke-width:0.357494"
         x="119.25716"
         y="82.999374"
         id="text863-2"><tspan
           sodipodi:role="line"
           id="tspan861-8"
           x="119.25716"
           y="82.999374"
           style="font-style:normal;font-variant:normal;font-weight:bold;font-stretch:normal;font-size:14.2998px;font-family:sans-serif;-inkscape-font-specification:'sans-serif, Bold';font-variant-ligatures:normal;font-variant-caps:normal;font-variant-numeric:normal;font-variant-east-asian:normal;fill:#ffffff;fill-opacity:1;stroke-width:0.357494">buya</tspan></text>
      <circle
         style="fill:#00c800;fill-opacity:0.615686;stroke-width:0"
         id="path917-1"
         cx="56.790924"
         cy="78.241066"
         r="12.189732" />
      <circle
         style="fill:#00c700;fill-opacity:0.960784;stroke:none;stroke-width:2;stroke-miterlimit:4;stroke-dasharray:2, 8;stroke-dashoffset:0;stroke-opacity:1"
         id="path917"
         cx="56.979916"
         cy="78.241066"
         r="7.1815472" />
      <circle
         style="fill:#ffffff;fill-opacity:1;stroke:none;stroke-width:0.583425;stroke-miterlimit:4;stroke-dasharray:0.583425, 2.33371;stroke-dashoffset:0;stroke-opacity:1"
         id="path917-7"
         cx="-15.193469"
         cy="102.772"
         r="2.0949521"
         transform="rotate(-45.095629)" />
      <circle
         style="fill:#ffffff;fill-opacity:1;stroke:none;stroke-width:0.583425;stroke-miterlimit:4;stroke-dasharray:0.583425, 2.33371;stroke-dashoffset:0;stroke-opacity:1"
         id="path917-7-1"
         cx="-22.386992"
         cy="95.578438"
         r="2.0949521"
         transform="rotate(-45.095629)" />
      <circle
         style="fill:#ffffff;fill-opacity:1;stroke:none;stroke-width:0.583425;stroke-miterlimit:4;stroke-dasharray:0.583425, 2.33371;stroke-dashoffset:0;stroke-opacity:1"
         id="path917-7-1-0"
         cx="-15.181462"
         cy="88.396927"
         r="2.0949521"
         transform="rotate(-45.095629)" />
      <circle
         style="fill:#ffffff;fill-opacity:1;stroke:none;stroke-width:0.583425;stroke-miterlimit:4;stroke-dasharray:0.583425, 2.33371;stroke-dashoffset:0;stroke-opacity:1"
         id="path917-7-1-0-5"
         cx="-7.9999475"
         cy="95.602455"
         r="2.0949521"
         transform="rotate(-45.095629)" />
      <circle
         style="fill:#00c800;fill-opacity:1;stroke:none;stroke-width:0.421015;stroke-miterlimit:4;stroke-dasharray:0.421015, 1.68407;stroke-dashoffset:0;stroke-opacity:1"
         id="path917-7-1-0-5-0"
         cx="8.5440512"
         cy="111.54403"
         r="1.5117751"
         transform="rotate(-45.095629)" />
      <circle
         style="fill:#00c800;fill-opacity:1;stroke:none;stroke-width:0.421015;stroke-miterlimit:4;stroke-dasharray:0.421015, 1.68407;stroke-dashoffset:0;stroke-opacity:1"
         id="path917-7-1-0-5-0-7"
         cx="28.887945"
         cy="137.33313"
         r="1.5117751"
         transform="rotate(-45.095629)" />
      <circle
         style="fill:#00c800;fill-opacity:1;stroke:none;stroke-width:0.421015;stroke-miterlimit:4;stroke-dasharray:0.421015, 1.68407;stroke-dashoffset:0;stroke-opacity:1"
         id="path917-7-1-0-5-0-7-1"
         cx="25.257738"
         cy="141.02463"
         r="1.5117751"
         transform="rotate(-45.095629)" />
    </g>
  </g>
</svg>
