<?xml version="1.0" encoding="UTF-8" standalone="no"?>
<!DOCTYPE svg PUBLIC "-//W3C//DTD SVG 1.1//EN" "http://www.w3.org/Graphics/SVG/1.1/DTD/svg11.dtd">
<svg width="100%" height="100%" viewBox="0 0 274 57" version="1.1" xmlns="http://www.w3.org/2000/svg" xmlns:xlink="http://www.w3.org/1999/xlink" xml:space="preserve" xmlns:serif="http://www.serif.com/" style="fill-rule:evenodd;clip-rule:evenodd;stroke-linejoin:round;stroke-miterlimit:2;">
    <g id="sikka-buya-logo" transform="matrix(1,0,0,1,-0.0916848,0)">
        <rect x="0.092" y="0" width="273.807" height="56.907" style="fill:none;"/>
        <clipPath id="_clip1">
            <rect x="0.092" y="0" width="273.807" height="56.907"/>
        </clipPath>
        <g clip-path="url(#_clip1)">
            <g transform="matrix(1.18181,0,0,1.88046,-554.735,-147.203)">
                <g>
                    <g transform="matrix(3.40518,0,0,2.14006,-107.689,-8.73675)">
                        <path d="M192.228,46.507C192.191,46.569 192.152,46.612 192.11,46.636C192.068,46.66 192.016,46.671 191.954,46.671C191.888,46.671 191.82,46.654 191.749,46.619C191.678,46.585 191.599,46.546 191.513,46.504C191.428,46.462 191.33,46.424 191.221,46.389C191.111,46.355 190.985,46.338 190.843,46.338C190.624,46.338 190.454,46.388 190.334,46.488C190.213,46.588 190.153,46.722 190.153,46.89C190.153,47.003 190.188,47.097 190.257,47.172C190.327,47.247 190.419,47.313 190.534,47.369C190.649,47.426 190.778,47.478 190.922,47.525C191.066,47.573 191.215,47.624 191.368,47.678C191.522,47.733 191.67,47.798 191.814,47.873C191.959,47.948 192.088,48.04 192.203,48.149C192.318,48.259 192.41,48.392 192.479,48.549C192.549,48.706 192.583,48.894 192.583,49.112C192.583,49.375 192.538,49.618 192.447,49.84C192.355,50.063 192.221,50.255 192.044,50.415C191.867,50.576 191.648,50.702 191.387,50.793C191.127,50.884 190.825,50.93 190.482,50.93C190.307,50.93 190.133,50.913 189.962,50.88C189.79,50.847 189.626,50.801 189.469,50.741C189.312,50.681 189.165,50.61 189.029,50.53C188.892,50.45 188.774,50.362 188.675,50.267L188.998,49.742C189.039,49.68 189.086,49.631 189.141,49.594C189.195,49.558 189.267,49.539 189.354,49.539C189.434,49.539 189.51,49.561 189.581,49.605C189.652,49.649 189.73,49.697 189.814,49.75C189.898,49.803 189.998,49.851 190.115,49.895C190.232,49.939 190.378,49.961 190.553,49.961C190.684,49.961 190.796,49.944 190.889,49.912C190.982,49.879 191.057,49.834 191.114,49.777C191.17,49.721 191.212,49.656 191.24,49.583C191.267,49.51 191.281,49.435 191.281,49.359C191.281,49.198 191.221,49.073 191.1,48.984C190.98,48.894 190.828,48.817 190.646,48.751C190.463,48.686 190.267,48.618 190.057,48.549C189.848,48.479 189.652,48.384 189.469,48.264C189.287,48.144 189.135,47.985 189.015,47.788C188.894,47.591 188.834,47.33 188.834,47.005C188.834,46.779 188.876,46.565 188.96,46.362C189.044,46.16 189.169,45.982 189.335,45.828C189.501,45.675 189.707,45.553 189.953,45.462C190.2,45.371 190.487,45.325 190.816,45.325C190.994,45.325 191.168,45.341 191.335,45.374C191.503,45.407 191.661,45.454 191.809,45.514C191.957,45.574 192.092,45.646 192.214,45.73C192.336,45.814 192.445,45.905 192.54,46.004L192.228,46.507Z" style="fill:rgb(47,47,47);fill-rule:nonzero;"/>
                        <path d="M195.167,45.413L195.167,50.847L193.776,50.847L193.776,45.413L195.167,45.413ZM195.336,43.853C195.336,43.973 195.312,44.085 195.265,44.189C195.218,44.293 195.154,44.384 195.073,44.463C194.993,44.541 194.898,44.603 194.789,44.649C194.679,44.695 194.564,44.717 194.444,44.717C194.327,44.717 194.217,44.695 194.113,44.649C194.009,44.603 193.918,44.541 193.839,44.463C193.761,44.384 193.699,44.293 193.653,44.189C193.608,44.085 193.585,43.973 193.585,43.853C193.585,43.732 193.608,43.619 193.653,43.513C193.699,43.407 193.761,43.315 193.839,43.237C193.918,43.158 194.009,43.096 194.113,43.051C194.217,43.005 194.327,42.982 194.444,42.982C194.564,42.982 194.679,43.005 194.789,43.051C194.898,43.096 194.993,43.158 195.073,43.237C195.154,43.315 195.218,43.407 195.265,43.513C195.312,43.619 195.336,43.732 195.336,43.853Z" style="fill:rgb(47,47,47);fill-rule:nonzero;"/>
                        <path d="M198.045,42.982L198.045,47.46L198.259,47.46C198.346,47.46 198.413,47.447 198.458,47.421C198.504,47.396 198.551,47.348 198.598,47.279L199.594,45.648C199.649,45.575 199.712,45.517 199.783,45.475C199.854,45.434 199.943,45.413 200.048,45.413L201.318,45.413L200.005,47.41C199.943,47.491 199.878,47.562 199.81,47.624C199.743,47.686 199.669,47.742 199.589,47.793C199.662,47.848 199.726,47.911 199.783,47.982C199.84,48.053 199.895,48.131 199.95,48.215L201.378,50.847L200.131,50.847C199.919,50.847 199.766,50.767 199.671,50.607L198.675,48.582C198.631,48.498 198.584,48.443 198.535,48.417C198.486,48.392 198.416,48.379 198.324,48.379L198.045,48.379L198.045,50.847L196.655,50.847L196.655,42.982L198.045,42.982Z" style="fill:rgb(47,47,47);fill-rule:nonzero;"/>
                        <path d="M203.538,42.982L203.538,47.46L203.751,47.46C203.839,47.46 203.905,47.447 203.951,47.421C203.996,47.396 204.043,47.348 204.09,47.279L205.086,45.648C205.141,45.575 205.204,45.517 205.275,45.475C205.346,45.434 205.435,45.413 205.541,45.413L206.811,45.413L205.497,47.41C205.435,47.491 205.37,47.562 205.303,47.624C205.235,47.686 205.161,47.742 205.081,47.793C205.154,47.848 205.219,47.911 205.275,47.982C205.332,48.053 205.387,48.131 205.442,48.215L206.871,50.847L205.623,50.847C205.411,50.847 205.258,50.767 205.163,50.607L204.167,48.582C204.123,48.498 204.077,48.443 204.027,48.417C203.978,48.392 203.908,48.379 203.817,48.379L203.538,48.379L203.538,50.847L202.147,50.847L202.147,42.982L203.538,42.982Z" style="fill:rgb(47,47,47);fill-rule:nonzero;"/>
                        <path d="M211.236,50.847C211.104,50.847 211.004,50.828 210.935,50.79C210.865,50.752 210.81,50.674 210.77,50.557L210.65,50.196C210.511,50.317 210.378,50.422 210.25,50.514C210.123,50.605 209.99,50.681 209.854,50.743C209.717,50.805 209.571,50.852 209.416,50.883C209.261,50.914 209.088,50.93 208.898,50.93C208.665,50.93 208.451,50.898 208.258,50.834C208.065,50.77 207.898,50.676 207.757,50.552C207.617,50.428 207.508,50.274 207.432,50.089C207.355,49.905 207.317,49.693 207.317,49.452C207.317,49.251 207.368,49.05 207.47,48.85C207.572,48.649 207.746,48.468 207.993,48.305C208.239,48.143 208.567,48.008 208.978,47.9C209.388,47.792 209.9,47.731 210.513,47.717L210.513,47.427C210.513,47.076 210.44,46.819 210.294,46.655C210.148,46.491 209.938,46.409 209.665,46.409C209.46,46.409 209.292,46.432 209.158,46.48C209.025,46.527 208.908,46.579 208.805,46.636C208.703,46.692 208.608,46.744 208.521,46.792C208.433,46.839 208.335,46.863 208.225,46.863C208.13,46.863 208.049,46.838 207.982,46.789C207.914,46.74 207.86,46.68 207.82,46.611L207.568,46.173C207.882,45.881 208.229,45.664 208.608,45.522C208.988,45.38 209.398,45.309 209.84,45.309C210.157,45.309 210.442,45.361 210.694,45.465C210.945,45.569 211.159,45.714 211.334,45.902C211.509,46.09 211.642,46.314 211.734,46.573C211.825,46.832 211.87,47.117 211.87,47.427L211.87,50.847L211.236,50.847ZM209.331,49.983C209.579,49.983 209.793,49.938 209.974,49.849C210.155,49.759 210.334,49.621 210.513,49.435L210.513,48.56C210.152,48.574 209.852,48.604 209.613,48.65C209.374,48.696 209.183,48.754 209.041,48.825C208.898,48.896 208.797,48.979 208.737,49.074C208.677,49.169 208.647,49.271 208.647,49.381C208.647,49.6 208.708,49.755 208.83,49.846C208.952,49.937 209.119,49.983 209.331,49.983Z" style="fill:rgb(47,47,47);fill-rule:nonzero;"/>
                    </g>
                    <g transform="matrix(3.40518,0,0,2.14006,614.98,100.079)">
                        <text x="0px" y="0px" style="font-family:'Carlito-Bold', 'Carlito', sans-serif;font-weight:700;font-size:11.209px;fill:rgb(72,172,72);">:</text>
                    </g>
                    <g transform="matrix(3.40518,0,0,2.14006,-15.621,-8.73675)">
                        <path d="M189.075,50.847L189.075,42.982L190.465,42.982L190.465,46.053C190.677,45.834 190.912,45.658 191.171,45.525C191.43,45.392 191.722,45.325 192.047,45.325C192.357,45.325 192.636,45.387 192.884,45.511C193.133,45.635 193.344,45.813 193.519,46.045C193.694,46.276 193.829,46.556 193.924,46.885C194.019,47.213 194.067,47.582 194.067,47.99C194.067,48.432 194.012,48.833 193.902,49.195C193.793,49.556 193.638,49.865 193.437,50.122C193.237,50.379 192.997,50.578 192.717,50.719C192.438,50.859 192.127,50.93 191.784,50.93C191.616,50.93 191.466,50.913 191.333,50.88C191.2,50.847 191.076,50.801 190.963,50.741C190.85,50.681 190.747,50.608 190.654,50.522C190.561,50.436 190.471,50.34 190.383,50.234L190.323,50.585C190.305,50.683 190.268,50.752 190.213,50.79C190.159,50.828 190.088,50.847 190,50.847L189.075,50.847ZM191.565,46.409C191.332,46.409 191.129,46.461 190.958,46.565C190.786,46.669 190.622,46.819 190.465,47.016L190.465,49.413C190.604,49.585 190.753,49.705 190.914,49.775C191.075,49.844 191.246,49.879 191.429,49.879C191.611,49.879 191.777,49.845 191.927,49.777C192.076,49.71 192.203,49.602 192.307,49.455C192.411,49.307 192.491,49.117 192.548,48.885C192.604,48.654 192.633,48.374 192.633,48.045C192.633,47.753 192.609,47.504 192.561,47.298C192.514,47.092 192.446,46.923 192.356,46.792C192.267,46.66 192.156,46.564 192.022,46.502C191.889,46.44 191.737,46.409 191.565,46.409Z" style="fill:rgb(47,47,47);fill-rule:nonzero;"/>
                        <path d="M196.387,45.413L196.387,48.866C196.387,49.18 196.458,49.423 196.601,49.594C196.743,49.766 196.957,49.851 197.241,49.851C197.449,49.851 197.646,49.805 197.832,49.712C198.018,49.619 198.193,49.492 198.358,49.331L198.358,45.413L199.748,45.413L199.748,50.847L198.894,50.847C198.806,50.847 198.733,50.826 198.672,50.785C198.612,50.743 198.573,50.68 198.555,50.596L198.456,50.202C198.241,50.417 198.003,50.592 197.742,50.727C197.481,50.862 197.172,50.93 196.814,50.93C196.519,50.93 196.258,50.878 196.032,50.776C195.805,50.674 195.616,50.532 195.462,50.349C195.309,50.167 195.193,49.95 195.115,49.698C195.036,49.446 194.997,49.169 194.997,48.866L194.997,45.413L196.387,45.413ZM195.796,43.574L198.987,43.574L198.987,44.455L195.796,44.455L195.796,43.574Z" style="fill:rgb(47,47,47);fill-rule:nonzero;"/>
                        <path d="M202.983,52.32C202.942,52.415 202.89,52.487 202.827,52.536C202.763,52.585 202.667,52.61 202.539,52.61L201.494,52.61L202.463,50.421L200.443,45.413L201.664,45.413C201.777,45.413 201.861,45.438 201.918,45.489C201.975,45.54 202.017,45.599 202.047,45.664L202.955,48.352C202.995,48.45 203.03,48.549 203.059,48.647C203.088,48.746 203.118,48.844 203.147,48.943C203.176,48.841 203.207,48.739 203.24,48.639C203.273,48.539 203.309,48.439 203.349,48.341L204.198,45.664C204.223,45.591 204.271,45.531 204.34,45.484C204.409,45.436 204.486,45.413 204.57,45.413L205.681,45.413L202.983,52.32Z" style="fill:rgb(47,47,47);fill-rule:nonzero;"/>
                        <path d="M209.884,50.847C209.753,50.847 209.653,50.828 209.583,50.79C209.514,50.752 209.459,50.674 209.419,50.557L209.299,50.196C209.16,50.317 209.027,50.422 208.899,50.514C208.771,50.605 208.639,50.681 208.502,50.743C208.365,50.805 208.22,50.852 208.064,50.883C207.909,50.914 207.737,50.93 207.547,50.93C207.314,50.93 207.1,50.898 206.907,50.834C206.713,50.77 206.547,50.676 206.406,50.552C206.266,50.428 206.157,50.274 206.08,50.089C206.004,49.905 205.965,49.693 205.965,49.452C205.965,49.251 206.017,49.05 206.119,48.85C206.221,48.649 206.395,48.468 206.641,48.305C206.888,48.143 207.216,48.008 207.627,47.9C208.037,47.792 208.549,47.731 209.162,47.717L209.162,47.427C209.162,47.076 209.089,46.819 208.943,46.655C208.797,46.491 208.587,46.409 208.313,46.409C208.109,46.409 207.94,46.432 207.807,46.48C207.674,46.527 207.556,46.579 207.454,46.636C207.352,46.692 207.257,46.744 207.17,46.792C207.082,46.839 206.983,46.863 206.874,46.863C206.779,46.863 206.698,46.838 206.63,46.789C206.563,46.74 206.509,46.68 206.469,46.611L206.217,46.173C206.531,45.881 206.878,45.664 207.257,45.522C207.637,45.38 208.047,45.309 208.489,45.309C208.806,45.309 209.091,45.361 209.342,45.465C209.594,45.569 209.808,45.714 209.983,45.902C210.158,46.09 210.291,46.314 210.382,46.573C210.474,46.832 210.519,47.117 210.519,47.427L210.519,50.847L209.884,50.847ZM207.98,49.983C208.228,49.983 208.442,49.938 208.623,49.849C208.803,49.759 208.983,49.621 209.162,49.435L209.162,48.56C208.801,48.574 208.5,48.604 208.262,48.65C208.023,48.696 207.832,48.754 207.69,48.825C207.547,48.896 207.446,48.979 207.386,49.074C207.326,49.169 207.295,49.271 207.295,49.381C207.295,49.6 207.357,49.755 207.479,49.846C207.601,49.937 207.768,49.983 207.98,49.983Z" style="fill:rgb(47,47,47);fill-rule:nonzero;"/>
                    </g>
                </g>
            </g>
            <g transform="matrix(1,0,0,1,0,-70.8346)">
                <g transform="matrix(0.197609,0,0,0.19761,-530.618,-48.6751)">
                    <circle cx="2828.34" cy="750.1" r="28.121" style="fill:rgb(47,47,47);"/>
                </g>
                <g id="Conc-Circ-Reg" transform="matrix(1.18181,0,0,1.88046,-554.735,-76.3684)">
                    <g transform="matrix(0.848319,0,0,0.533143,-1905.93,-306.361)">
                        <path d="M2828.34,721.979C2843.87,721.979 2856.47,734.58 2856.47,750.1C2856.47,765.621 2843.87,778.222 2828.34,778.222C2812.82,778.222 2800.22,765.621 2800.22,750.1C2800.22,734.58 2812.82,721.979 2828.34,721.979ZM2828.34,727.603C2840.76,727.603 2850.84,737.684 2850.84,750.1C2850.84,762.517 2840.76,772.597 2828.34,772.597C2815.93,772.597 2805.85,762.517 2805.85,750.1C2805.85,737.684 2815.93,727.603 2828.34,727.603Z" style="fill:rgb(50,120,50);"/>
                    </g>
                    <g transform="matrix(0.507764,0,0,0.319114,-942.722,-145.818)">
                        <path d="M2828.34,721.979C2843.87,721.979 2856.47,734.58 2856.47,750.1C2856.47,765.621 2843.87,778.222 2828.34,778.222C2812.82,778.222 2800.22,765.621 2800.22,750.1C2800.22,734.58 2812.82,721.979 2828.34,721.979ZM2828.34,731.394C2838.67,731.394 2847.05,739.776 2847.05,750.1C2847.05,760.424 2838.67,768.806 2828.34,768.806C2818.02,768.806 2809.64,760.424 2809.64,750.1C2809.64,739.776 2818.02,731.394 2828.34,731.394Z" style="fill:rgb(72,172,72);"/>
                    </g>
                </g>
            </g>
        </g>
    </g>
</svg>
